<svg width="1600" height="1600" viewBox="0 0 1600 1600" fill="none" xmlns="http://www.w3.org/2000/svg">
<path d="M455.53 123.314C484.587 94.2571 523.996 77.9332 565.089 77.9331L1034.91 77.9331C1076 77.9331 1115.41 94.2571 1144.47 123.314L1476.69 455.529C1505.74 484.586 1522.07 523.996 1522.07 565.088L1522.07 1034.91C1522.07 1076 1505.74 1115.41 1476.69 1144.47L1144.47 1476.69C1115.41 1505.74 1076 1522.07 1034.91 1522.07L565.089 1522.07C523.996 1522.07 484.586 1505.74 455.53 1476.69L123.314 1144.47C94.2576 1115.41 77.9336 1076 77.9336 1034.91L77.9336 565.088C77.9336 523.996 94.2576 484.586 123.315 455.529L455.53 123.314Z" stroke="#FE4E4E" stroke-width="28" stroke-dasharray="64 64"/>
<path d="M555.114 272.792C567.116 260.79 583.395 254.047 600.369 254.047L999.632 254.047C1016.61 254.047 1032.88 260.79 1044.89 272.792L1327.21 555.114C1339.21 567.116 1345.95 583.395 1345.95 600.369V999.632C1345.95 1016.61 1339.21 1032.88 1327.21 1044.89L1044.89 1327.21C1032.88 1339.21 1016.61 1345.95 999.632 1345.95H600.369C583.395 1345.95 567.116 1339.21 555.114 1327.21L272.792 1044.89C260.79 1032.88 254.047 1016.61 254.047 999.632L254.047 600.369C254.047 583.395 260.79 567.116 272.792 555.114L555.114 272.792Z" fill="#131322"/>
<path d="M600.368 286.047H999.632C1008.12 286.047 1016.26 289.419 1022.26 295.42L1304.58 577.741C1310.58 583.742 1313.95 591.882 1313.95 600.368V999.632C1313.95 1008.12 1310.58 1016.26 1304.58 1022.26L1022.26 1304.58C1016.26 1310.58 1008.12 1313.95 999.632 1313.95H600.368C591.882 1313.95 583.742 1310.58 577.741 1304.58L295.42 1022.26C289.419 1016.26 286.047 1008.12 286.047 999.632V600.368C286.047 591.881 289.419 583.742 295.42 577.741L577.741 295.42C583.742 289.419 591.881 286.047 600.368 286.047Z" stroke="url(#paint0_linear_64_6)" stroke-opacity="0.2" stroke-width="64"/>
<path d="M840.94 557.261C851.812 557.261 860.707 548.366 860.707 537.494C860.707 526.622 851.812 517.727 840.94 517.727C830.068 517.727 821.173 526.622 821.173 537.494C821.173 548.366 830.068 557.261 840.94 557.261ZM718.12 497.96C728.992 497.96 737.887 489.065 737.887 478.193C737.887 467.322 728.992 458.426 718.12 458.426C707.249 458.426 698.354 467.322 698.354 478.193C698.354 489.065 707.249 497.96 718.12 497.96ZM759.06 557.261C769.932 557.261 778.827 548.366 778.827 537.494C778.827 526.622 769.932 517.727 759.06 517.727C748.189 517.727 739.293 526.622 739.293 537.494C739.293 548.366 748.189 557.261 759.06 557.261ZM800 616.562C810.872 616.562 819.767 607.667 819.767 596.795C819.767 585.923 810.872 577.028 800 577.028C789.128 577.028 780.233 585.923 780.233 596.795C780.233 607.667 789.128 616.562 800 616.562ZM881.88 497.96C892.752 497.96 901.647 489.065 901.647 478.193C901.647 467.322 892.752 458.426 881.88 458.426C871.008 458.426 862.113 467.322 862.113 478.193C862.113 489.065 871.008 497.96 881.88 497.96Z" fill="#FE4E4E"/>
<path d="M840.94 636.558C851.812 636.558 860.707 645.453 860.707 656.325C860.707 667.197 851.812 676.092 840.94 676.092C830.068 676.092 821.173 667.197 821.173 656.325C821.173 645.453 830.068 636.558 840.94 636.558ZM718.12 695.859C728.992 695.859 737.887 704.754 737.887 715.626C737.887 726.498 728.992 735.393 718.12 735.393C707.249 735.393 698.354 726.498 698.354 715.626C698.354 704.754 707.249 695.859 718.12 695.859ZM759.06 636.558C769.932 636.558 778.827 645.453 778.827 656.325C778.827 667.197 769.932 676.092 759.06 676.092C748.189 676.092 739.293 667.197 739.293 656.325C739.293 645.453 748.189 636.558 759.06 636.558ZM800 577.257C810.872 577.257 819.767 586.152 819.767 597.024C819.767 607.896 810.872 616.791 800 616.791C789.128 616.791 780.233 607.896 780.233 597.024C780.233 586.152 789.128 577.257 800 577.257ZM881.88 695.859C892.752 695.859 901.647 704.754 901.647 715.626C901.647 726.498 892.752 735.393 881.88 735.393C871.008 735.393 862.113 726.498 862.113 715.626C862.113 704.754 871.008 695.859 881.88 695.859Z" fill="#FE4E4E"/>
<mask id="path-6-outside-1_64_6" maskUnits="userSpaceOnUse" x="318.447" y="860.727" width="963" height="297" fill="black">
<rect fill="white" x="318.447" y="860.727" width="963" height="297"/>
<path d="M552.358 1074.14H506.801V969.006C506.801 963.049 505.75 957.734 503.647 953.061C501.661 948.272 498.916 944.184 495.412 940.796C491.908 937.409 487.761 934.839 482.972 933.087C478.299 931.218 473.218 930.283 467.728 930.283H388.004V1074.14H342.447V907.33C342.447 904.176 343.031 901.255 344.199 898.569C345.368 895.765 347.003 893.371 349.106 891.385C351.208 889.282 353.661 887.647 356.465 886.479C359.268 885.311 362.247 884.727 365.401 884.727H468.078C473.802 884.727 479.818 885.369 486.125 886.654C492.55 887.939 498.858 890.041 505.049 892.962C511.357 895.765 517.314 899.386 522.921 903.825C528.645 908.147 533.668 913.462 537.99 919.77C542.429 925.961 545.933 933.145 548.503 941.322C551.073 949.499 552.358 958.727 552.358 969.006V1074.14Z"/>
<path d="M787.597 1010.18C787.597 1018.01 786.605 1025.08 784.619 1031.38C782.633 1037.57 780.005 1043.06 776.734 1047.85C773.463 1052.53 769.667 1056.56 765.345 1059.94C761.023 1063.21 756.467 1065.9 751.678 1068C747.005 1070.11 742.216 1071.68 737.31 1072.73C732.521 1073.67 727.965 1074.14 723.643 1074.14H641.466C635.158 1074.14 628.266 1073.03 620.791 1070.81C613.315 1068.59 606.364 1064.97 599.94 1059.94C593.632 1054.8 588.317 1048.2 583.995 1040.14C579.79 1031.97 577.687 1021.98 577.687 1010.18V948.506C577.687 936.825 579.79 926.954 583.995 918.894C588.317 910.717 593.632 904.117 599.94 899.094C606.364 893.955 613.315 890.275 620.791 888.056C628.266 885.836 635.158 884.727 641.466 884.727H723.643C735.324 884.727 745.253 886.829 753.43 891.034C761.607 895.24 768.207 900.555 773.23 906.979C778.253 913.287 781.874 920.179 784.093 927.655C786.429 935.131 787.597 942.081 787.597 948.506V1010.18ZM742.041 948.856C742.041 942.548 740.464 937.876 737.31 934.839C734.156 931.802 729.6 930.283 723.643 930.283H641.817C635.742 930.283 631.128 931.86 627.974 935.014C624.821 938.051 623.244 942.548 623.244 948.506V1010.18C623.244 1016.14 624.821 1020.7 627.974 1023.85C631.128 1027 635.742 1028.58 641.817 1028.58H723.643C729.834 1028.58 734.448 1027 737.485 1023.85C740.522 1020.7 742.041 1016.14 742.041 1010.18V948.856Z"/>
<path d="M1024.59 1010.18C1024.59 1018.01 1023.6 1025.08 1021.61 1031.38C1019.62 1037.57 1017 1043.06 1013.73 1047.85C1010.46 1052.53 1006.66 1056.56 1002.34 1059.94C998.015 1063.21 993.459 1065.9 988.67 1068C983.997 1070.11 979.267 1071.68 974.477 1072.73C969.688 1073.67 965.132 1074.14 960.81 1074.14H878.633V1028.58H960.81C966.885 1028.58 971.44 1027 974.477 1023.85C977.514 1020.7 979.033 1016.14 979.033 1010.18V948.856C979.033 942.548 977.456 937.876 974.302 934.839C971.265 931.802 966.768 930.283 960.81 930.283H878.984C872.793 930.283 868.12 931.86 864.966 935.014C861.812 938.051 860.236 942.548 860.236 948.506V1133.36H814.679V948.506C814.679 940.679 815.672 933.671 817.658 927.48C819.643 921.289 822.272 915.857 825.542 911.184C828.93 906.395 832.785 902.365 837.107 899.094C841.429 895.707 845.926 892.962 850.599 890.859C855.388 888.757 860.177 887.238 864.966 886.304C869.872 885.252 874.428 884.727 878.633 884.727H960.81C968.637 884.727 975.645 885.719 981.836 887.705C988.027 889.691 993.459 892.319 998.132 895.59C1002.92 898.861 1006.95 902.657 1010.22 906.979C1013.61 911.301 1016.35 915.857 1018.46 920.646C1020.56 925.319 1022.08 930.049 1023.01 934.839C1024.06 939.628 1024.59 944.184 1024.59 948.506V1010.18Z"/>
<path d="M1256.5 947.454C1256.5 953.762 1255.39 960.596 1253.17 967.955C1250.95 975.197 1247.33 981.972 1242.31 988.28C1237.4 994.471 1230.92 999.669 1222.86 1003.87C1214.92 1008.08 1205.22 1010.18 1193.77 1010.18H1111.6V966.903H1193.77C1199.96 966.903 1204.75 965.035 1208.14 961.297C1211.53 957.442 1213.22 952.711 1213.22 947.104C1213.22 941.147 1211.29 936.474 1207.44 933.087C1203.7 929.699 1199.15 928.005 1193.77 928.005H1111.6C1105.4 928.005 1100.61 929.933 1097.23 933.787C1093.84 937.525 1092.15 942.198 1092.15 947.805V1011.41C1092.15 1017.48 1094.02 1022.21 1097.75 1025.6C1101.61 1028.99 1106.34 1030.68 1111.95 1030.68H1193.77V1074.14H1111.6C1105.29 1074.14 1098.45 1073.03 1091.09 1070.81C1083.85 1068.59 1077.08 1065.03 1070.77 1060.12C1064.58 1055.1 1059.38 1048.61 1055.18 1040.67C1050.97 1032.61 1048.87 1022.86 1048.87 1011.41V947.454C1048.87 941.147 1049.98 934.371 1052.2 927.129C1054.42 919.77 1057.98 912.995 1062.88 906.804C1067.91 900.496 1074.39 895.24 1082.33 891.034C1090.39 886.829 1100.15 884.727 1111.6 884.727H1193.77C1200.08 884.727 1206.86 885.836 1214.1 888.056C1221.46 890.275 1228.23 893.896 1234.42 898.919C1240.73 903.825 1245.99 910.308 1250.19 918.368C1254.4 926.311 1256.5 936.007 1256.5 947.454Z"/>
</mask>
<path d="M552.358 1074.14H506.801V969.006C506.801 963.049 505.75 957.734 503.647 953.061C501.661 948.272 498.916 944.184 495.412 940.796C491.908 937.409 487.761 934.839 482.972 933.087C478.299 931.218 473.218 930.283 467.728 930.283H388.004V1074.14H342.447V907.33C342.447 904.176 343.031 901.255 344.199 898.569C345.368 895.765 347.003 893.371 349.106 891.385C351.208 889.282 353.661 887.647 356.465 886.479C359.268 885.311 362.247 884.727 365.401 884.727H468.078C473.802 884.727 479.818 885.369 486.125 886.654C492.55 887.939 498.858 890.041 505.049 892.962C511.357 895.765 517.314 899.386 522.921 903.825C528.645 908.147 533.668 913.462 537.99 919.77C542.429 925.961 545.933 933.145 548.503 941.322C551.073 949.499 552.358 958.727 552.358 969.006V1074.14Z" fill="#FE4E4E"/>
<path d="M787.597 1010.18C787.597 1018.01 786.605 1025.08 784.619 1031.38C782.633 1037.57 780.005 1043.06 776.734 1047.85C773.463 1052.53 769.667 1056.56 765.345 1059.94C761.023 1063.21 756.467 1065.9 751.678 1068C747.005 1070.11 742.216 1071.68 737.31 1072.73C732.521 1073.67 727.965 1074.14 723.643 1074.14H641.466C635.158 1074.14 628.266 1073.03 620.791 1070.81C613.315 1068.59 606.364 1064.97 599.94 1059.94C593.632 1054.8 588.317 1048.2 583.995 1040.14C579.79 1031.97 577.687 1021.98 577.687 1010.18V948.506C577.687 936.825 579.79 926.954 583.995 918.894C588.317 910.717 593.632 904.117 599.94 899.094C606.364 893.955 613.315 890.275 620.791 888.056C628.266 885.836 635.158 884.727 641.466 884.727H723.643C735.324 884.727 745.253 886.829 753.43 891.034C761.607 895.24 768.207 900.555 773.23 906.979C778.253 913.287 781.874 920.179 784.093 927.655C786.429 935.131 787.597 942.081 787.597 948.506V1010.18ZM742.041 948.856C742.041 942.548 740.464 937.876 737.31 934.839C734.156 931.802 729.6 930.283 723.643 930.283H641.817C635.742 930.283 631.128 931.86 627.974 935.014C624.821 938.051 623.244 942.548 623.244 948.506V1010.18C623.244 1016.14 624.821 1020.7 627.974 1023.85C631.128 1027 635.742 1028.58 641.817 1028.58H723.643C729.834 1028.58 734.448 1027 737.485 1023.85C740.522 1020.7 742.041 1016.14 742.041 1010.18V948.856Z" fill="#FE4E4E"/>
<path d="M1024.59 1010.18C1024.59 1018.01 1023.6 1025.08 1021.61 1031.38C1019.62 1037.57 1017 1043.06 1013.73 1047.85C1010.46 1052.53 1006.66 1056.56 1002.34 1059.94C998.015 1063.21 993.459 1065.9 988.67 1068C983.997 1070.11 979.267 1071.68 974.477 1072.73C969.688 1073.67 965.132 1074.14 960.81 1074.14H878.633V1028.58H960.81C966.885 1028.58 971.44 1027 974.477 1023.85C977.514 1020.7 979.033 1016.14 979.033 1010.18V948.856C979.033 942.548 977.456 937.876 974.302 934.839C971.265 931.802 966.768 930.283 960.81 930.283H878.984C872.793 930.283 868.12 931.86 864.966 935.014C861.812 938.051 860.236 942.548 860.236 948.506V1133.36H814.679V948.506C814.679 940.679 815.672 933.671 817.658 927.48C819.643 921.289 822.272 915.857 825.542 911.184C828.93 906.395 832.785 902.365 837.107 899.094C841.429 895.707 845.926 892.962 850.599 890.859C855.388 888.757 860.177 887.238 864.966 886.304C869.872 885.252 874.428 884.727 878.633 884.727H960.81C968.637 884.727 975.645 885.719 981.836 887.705C988.027 889.691 993.459 892.319 998.132 895.59C1002.92 898.861 1006.95 902.657 1010.22 906.979C1013.61 911.301 1016.35 915.857 1018.46 920.646C1020.56 925.319 1022.08 930.049 1023.01 934.839C1024.06 939.628 1024.59 944.184 1024.59 948.506V1010.18Z" fill="#FE4E4E"/>
<path d="M1256.5 947.454C1256.5 953.762 1255.39 960.596 1253.17 967.955C1250.95 975.197 1247.33 981.972 1242.31 988.28C1237.4 994.471 1230.92 999.669 1222.86 1003.87C1214.92 1008.08 1205.22 1010.18 1193.77 1010.18H1111.6V966.903H1193.77C1199.96 966.903 1204.75 965.035 1208.14 961.297C1211.53 957.442 1213.22 952.711 1213.22 947.104C1213.22 941.147 1211.29 936.474 1207.44 933.087C1203.7 929.699 1199.15 928.005 1193.77 928.005H1111.6C1105.4 928.005 1100.61 929.933 1097.23 933.787C1093.84 937.525 1092.15 942.198 1092.15 947.805V1011.41C1092.15 1017.48 1094.02 1022.21 1097.75 1025.6C1101.61 1028.99 1106.34 1030.68 1111.95 1030.68H1193.77V1074.14H1111.6C1105.29 1074.14 1098.45 1073.03 1091.09 1070.81C1083.85 1068.59 1077.08 1065.03 1070.77 1060.12C1064.58 1055.1 1059.38 1048.61 1055.18 1040.67C1050.97 1032.61 1048.87 1022.86 1048.87 1011.41V947.454C1048.87 941.147 1049.98 934.371 1052.2 927.129C1054.42 919.77 1057.98 912.995 1062.88 906.804C1067.91 900.496 1074.39 895.24 1082.33 891.034C1090.39 886.829 1100.15 884.727 1111.6 884.727H1193.77C1200.08 884.727 1206.86 885.836 1214.1 888.056C1221.46 890.275 1228.23 893.896 1234.42 898.919C1240.73 903.825 1245.99 910.308 1250.19 918.368C1254.4 926.311 1256.5 936.007 1256.5 947.454Z" fill="#FE4E4E"/>
<path d="M552.358 1074.14H506.801V969.006C506.801 963.049 505.75 957.734 503.647 953.061C501.661 948.272 498.916 944.184 495.412 940.796C491.908 937.409 487.761 934.839 482.972 933.087C478.299 931.218 473.218 930.283 467.728 930.283H388.004V1074.14H342.447V907.33C342.447 904.176 343.031 901.255 344.199 898.569C345.368 895.765 347.003 893.371 349.106 891.385C351.208 889.282 353.661 887.647 356.465 886.479C359.268 885.311 362.247 884.727 365.401 884.727H468.078C473.802 884.727 479.818 885.369 486.125 886.654C492.55 887.939 498.858 890.041 505.049 892.962C511.357 895.765 517.314 899.386 522.921 903.825C528.645 908.147 533.668 913.462 537.99 919.77C542.429 925.961 545.933 933.145 548.503 941.322C551.073 949.499 552.358 958.727 552.358 969.006V1074.14Z" stroke="#131322" stroke-width="48" mask="url(#path-6-outside-1_64_6)"/>
<path d="M787.597 1010.18C787.597 1018.01 786.605 1025.08 784.619 1031.38C782.633 1037.57 780.005 1043.06 776.734 1047.85C773.463 1052.53 769.667 1056.56 765.345 1059.94C761.023 1063.21 756.467 1065.9 751.678 1068C747.005 1070.11 742.216 1071.68 737.31 1072.73C732.521 1073.67 727.965 1074.14 723.643 1074.14H641.466C635.158 1074.14 628.266 1073.03 620.791 1070.81C613.315 1068.59 606.364 1064.97 599.94 1059.94C593.632 1054.8 588.317 1048.2 583.995 1040.14C579.79 1031.97 577.687 1021.98 577.687 1010.18V948.506C577.687 936.825 579.79 926.954 583.995 918.894C588.317 910.717 593.632 904.117 599.94 899.094C606.364 893.955 613.315 890.275 620.791 888.056C628.266 885.836 635.158 884.727 641.466 884.727H723.643C735.324 884.727 745.253 886.829 753.43 891.034C761.607 895.24 768.207 900.555 773.23 906.979C778.253 913.287 781.874 920.179 784.093 927.655C786.429 935.131 787.597 942.081 787.597 948.506V1010.18ZM742.041 948.856C742.041 942.548 740.464 937.876 737.31 934.839C734.156 931.802 729.6 930.283 723.643 930.283H641.817C635.742 930.283 631.128 931.86 627.974 935.014C624.821 938.051 623.244 942.548 623.244 948.506V1010.18C623.244 1016.14 624.821 1020.7 627.974 1023.85C631.128 1027 635.742 1028.58 641.817 1028.58H723.643C729.834 1028.58 734.448 1027 737.485 1023.85C740.522 1020.7 742.041 1016.14 742.041 1010.18V948.856Z" stroke="#131322" stroke-width="48" mask="url(#path-6-outside-1_64_6)"/>
<path d="M1024.59 1010.18C1024.59 1018.01 1023.6 1025.08 1021.61 1031.38C1019.62 1037.57 1017 1043.06 1013.73 1047.85C1010.46 1052.53 1006.66 1056.56 1002.34 1059.94C998.015 1063.21 993.459 1065.9 988.67 1068C983.997 1070.11 979.267 1071.68 974.477 1072.73C969.688 1073.67 965.132 1074.14 960.81 1074.14H878.633V1028.58H960.81C966.885 1028.58 971.44 1027 974.477 1023.85C977.514 1020.7 979.033 1016.14 979.033 1010.18V948.856C979.033 942.548 977.456 937.876 974.302 934.839C971.265 931.802 966.768 930.283 960.81 930.283H878.984C872.793 930.283 868.12 931.86 864.966 935.014C861.812 938.051 860.236 942.548 860.236 948.506V1133.36H814.679V948.506C814.679 940.679 815.672 933.671 817.658 927.48C819.643 921.289 822.272 915.857 825.542 911.184C828.93 906.395 832.785 902.365 837.107 899.094C841.429 895.707 845.926 892.962 850.599 890.859C855.388 888.757 860.177 887.238 864.966 886.304C869.872 885.252 874.428 884.727 878.633 884.727H960.81C968.637 884.727 975.645 885.719 981.836 887.705C988.027 889.691 993.459 892.319 998.132 895.59C1002.92 898.861 1006.95 902.657 1010.22 906.979C1013.61 911.301 1016.35 915.857 1018.46 920.646C1020.56 925.319 1022.08 930.049 1023.01 934.839C1024.06 939.628 1024.59 944.184 1024.59 948.506V1010.18Z" stroke="#131322" stroke-width="48" mask="url(#path-6-outside-1_64_6)"/>
<path d="M1256.5 947.454C1256.5 953.762 1255.39 960.596 1253.17 967.955C1250.95 975.197 1247.33 981.972 1242.31 988.28C1237.4 994.471 1230.92 999.669 1222.86 1003.87C1214.92 1008.08 1205.22 1010.18 1193.77 1010.18H1111.6V966.903H1193.77C1199.96 966.903 1204.75 965.035 1208.14 961.297C1211.53 957.442 1213.22 952.711 1213.22 947.104C1213.22 941.147 1211.29 936.474 1207.44 933.087C1203.7 929.699 1199.15 928.005 1193.77 928.005H1111.6C1105.4 928.005 1100.61 929.933 1097.23 933.787C1093.84 937.525 1092.15 942.198 1092.15 947.805V1011.41C1092.15 1017.48 1094.02 1022.21 1097.75 1025.6C1101.61 1028.99 1106.34 1030.68 1111.95 1030.68H1193.77V1074.14H1111.6C1105.29 1074.14 1098.45 1073.03 1091.09 1070.81C1083.85 1068.59 1077.08 1065.03 1070.77 1060.12C1064.58 1055.1 1059.38 1048.61 1055.18 1040.67C1050.97 1032.61 1048.87 1022.86 1048.87 1011.41V947.454C1048.87 941.147 1049.98 934.371 1052.2 927.129C1054.42 919.77 1057.98 912.995 1062.88 906.804C1067.91 900.496 1074.39 895.24 1082.33 891.034C1090.39 886.829 1100.15 884.727 1111.6 884.727H1193.77C1200.08 884.727 1206.86 885.836 1214.1 888.056C1221.46 890.275 1228.23 893.896 1234.42 898.919C1240.73 903.825 1245.99 910.308 1250.19 918.368C1254.4 926.311 1256.5 936.007 1256.5 947.454Z" stroke="#131322" stroke-width="48" mask="url(#path-6-outside-1_64_6)"/>
<defs>
<linearGradient id="paint0_linear_64_6" x1="209.515" y1="327.566" x2="1346.53" y2="1178.8" gradientUnits="userSpaceOnUse">
<stop stop-color="#878787"/>
<stop offset="1" stop-color="#1E1E1E"/>
</linearGradient>
</defs>
</svg>
